# xmcd
#
# Track frame offsets:
#	183
#	12968
#	24210
#	31500
#	43373
#	56060
#	74438
#	86948
#	102480
#	114485
#	127285
#	138745
#
# Disc length: 2007 seconds
#
# Revision: 0
# Processed by: cddbd v1.5.2PL0 Copyright (c) Steve Scherf et al.
# Submitted via: audiograbber 1.83.01
#
DISCID=ae07d50c
DTITLE=Miltinho - Miltinho Sempre
DYEAR=1900
DGENRE=Country
TTITLE0=Mulher de trinta
TTITLE1=Fechei a porta
TTITLE2=Você só você
TTITLE3=Fica comigo
TTITLE4=Volta
TTITLE5=Eu e o rio
TTITLE6=Ri
TTITLE7=Ideias erradas
TTITLE8=Teimoso
TTITLE9=Menina moça
TTITLE10=Ultimatum
TTITLE11=Triste fim
EXTD=
EXTT0=
EXTT1=
EXTT2=
EXTT3=
EXTT4=
EXTT5=
EXTT6=
EXTT7=
EXTT8=
EXTT9=
EXTT10=
EXTT11=
PLAYORDER=
